<svg id="Layer_3" enable-background="new 0 0 64 64" height="512" viewBox="0 0 64 64" width="512" xmlns="http://www.w3.org/2000/svg"><g><path d="m33 51.721v1.279h6v-2.382l-1.077-.539z"/><path d="m33 59v2h4v-2.101c-.323.066-.658.101-1 .101z"/><path d="m7 58.899v2.101h4v-2h-3c-.342 0-.677-.035-1-.101z"/><path d="m31.211 40.658c-.511-1.022-1.54-1.658-2.683-1.658h-13.056c-1.144 0-2.172.636-2.683 1.658l-3.171 6.342h24.764z"/><path d="m11 51.721-4.923-1.642-1.077.539v2.382h6z"/><path d="m5.586 47h-2.586v2h.764l2.548-1.274z"/><path d="m31 54v-3c0-.431.275-.812.684-.948l3.155-1.052h-25.678l3.155 1.052c.409.136.684.517.684.948v3c0 .553-.448 1-1 1h-6.816c.414 1.161 1.514 2 2.816 2h28c1.302 0 2.402-.839 2.816-2h-6.816c-.552 0-1-.447-1-1zm-2 1h-14v-2h14z"/><path d="m51 10h-4v4h4c1.103 0 2-.897 2-2s-.897-2-2-2z"/><path d="m46 28.668v2.332h6v-2.332c-.968.212-1.97.332-3 .332s-2.032-.12-3-.332z"/><path d="m49 3c-6.617 0-12 5.383-12 12s5.383 12 12 12 12-5.383 12-12-5.383-12-12-12zm2 13h-4v7h-2v-14c0-.553.448-1 1-1h5c2.206 0 4 1.794 4 4s-1.794 4-4 4z"/><path d="m37.688 47.726 2.548 1.274h.764v-2h-2.586z"/><path d="m48 33h2v24h-2z"/><path d="m46 59h6v2h-6z"/></g></svg>