<svg id="Layer_3" enable-background="new 0 0 64 64" height="512" viewBox="0 0 64 64" width="512" xmlns="http://www.w3.org/2000/svg"><g><path d="m55 12c0-2.206-1.794-4-4-4h-5c-.552 0-1 .447-1 1v14h2v-7h4c2.206 0 4-1.794 4-4zm-8-2h4c1.103 0 2 .897 2 2s-.897 2-2 2h-4z"/><path d="m54 58c0-.553-.448-1-1-1h-1v-24h1c.552 0 1-.447 1-1v-3.939c5.254-2.019 9-7.104 9-13.061 0-7.72-6.28-14-14-14s-14 6.28-14 14c0 5.957 3.746 11.042 9 13.061v3.939c0 .553.448 1 1 1h1v24h-1c-.552 0-1 .447-1 1v3h-5v-3.026c1.207-.914 2-2.348 2-3.974v-3h1c.552 0 1-.447 1-1v-4c0-.553-.448-1-1-1h-4c-.265 0-.52.105-.707.293l-1.019 1.019-3.274-6.548c-.853-1.705-2.566-2.764-4.472-2.764h-13.056c-1.906 0-3.62 1.059-4.472 2.764l-3.274 6.548-1.019-1.019c-.187-.188-.442-.293-.707-.293h-4c-.552 0-1 .447-1 1v4c0 .553.448 1 1 1h1v3c0 1.627.793 3.061 2 3.974v3.026h-4v2h62v-2h-9zm-17-43c0-6.617 5.383-12 12-12s12 5.383 12 12-5.383 12-12 12-12-5.383-12-12zm12 14c1.03 0 2.032-.12 3-.332v2.332h-6v-2.332c.968.212 1.97.332 3 .332zm-1 4h2v24h-2zm-2 26h6v2h-6zm-9 2h-4v-2h3c.342 0 .677-.035 1-.101zm-31.816-6h6.816c.552 0 1-.447 1-1v-3c0-.431-.275-.812-.684-.948l-3.155-1.052h25.678l-3.155 1.052c-.409.136-.684.517-.684.948v3c0 .553.448 1 1 1h6.816c-.414 1.161-1.514 2-2.816 2h-28c-1.302 0-2.402-.839-2.816-2zm.893-4.921 4.923 1.642v1.279h-6v-2.382zm32.923 2.921h-6v-1.279l4.923-1.641 1.077.538zm-8 6v2h-18v-2zm7.414-12h2.586v2h-.764l-2.548-1.274zm-25.625-6.342c.511-1.022 1.54-1.658 2.683-1.658h13.056c1.144 0 2.172.636 2.683 1.658l3.171 6.342h-24.764zm-9.789 6.342h2.586l.726.726-2.548 1.274h-.764zm4 11.899c.323.066.658.101 1 .101h3v2h-4z"/><path d="m15 53h14v2h-14z"/></g></svg>